<svg width="66" height="65" viewBox="0 0 66 65" fill="none" xmlns="http://www.w3.org/2000/svg">
<g id="fa-solid:headphones" clip-path="url(#clip0_42_109)">
<path id="Vector" d="M32.9 4.0625C14.9387 4.0625 0.400024 18.5981 0.400024 36.5625V42.6562C0.400015 43.4107 0.610099 44.1503 1.00674 44.7921C1.40337 45.4338 1.97089 45.9525 2.6457 46.2899L4.47166 47.2028C4.72697 54.8314 10.9906 60.9375 18.6813 60.9375H21.7281C23.4109 60.9375 24.775 59.5734 24.775 57.8906V35.5469C24.775 33.8641 23.4109 32.5 21.7281 32.5H18.6813C14.7023 32.5 11.1059 34.135 8.52502 36.7691V36.5625C8.52502 23.1221 19.4596 12.1875 32.9 12.1875C46.3404 12.1875 57.275 23.1221 57.275 36.5625V36.7691C54.6942 34.135 51.0977 32.5 47.1188 32.5H44.0719C42.3891 32.5 41.025 33.8641 41.025 35.5469V57.8906C41.025 59.5734 42.3891 60.9375 44.0719 60.9375H47.1188C54.8095 60.9375 61.0731 54.8313 61.3284 47.2028L63.1542 46.2899C63.8291 45.9525 64.3966 45.4339 64.7933 44.7921C65.1899 44.1503 65.4 43.4107 65.4 42.6562V36.5625C65.4 18.6013 50.8644 4.0625 32.9 4.0625Z" fill="url(#paint0_linear_42_109)"/>
</g>
<defs>
<linearGradient id="paint0_linear_42_109" x1="0.400024" y1="4.0625" x2="67.0587" y2="6.07789" gradientUnits="userSpaceOnUse">
<stop stop-color="#DA0006"/>
<stop offset="1" stop-color="#9E0004"/>
</linearGradient>
<clipPath id="clip0_42_109">
<rect width="65" height="65" fill="white" transform="translate(0.400024)"/>
</clipPath>
</defs>
</svg>
