<svg width="51" height="73" viewBox="0 0 51 73" fill="none" xmlns="http://www.w3.org/2000/svg">
<g id="fa-solid:microphone" clip-path="url(#clip0_42_107)">
<path id="Vector" d="M25.7 50C33.2313 50 39.3364 43.8949 39.3364 36.3636V13.6364C39.3364 6.10511 33.2313 0 25.7 0C18.1688 0 12.0636 6.10511 12.0636 13.6364V36.3636C12.0636 43.8949 18.1688 50 25.7 50ZM48.4273 27.2727H46.1546C44.8989 27.2727 43.8818 28.2898 43.8818 29.5455V36.3636C43.8818 46.9886 34.7213 55.5142 23.8833 54.4574C14.4372 53.5355 7.51819 45.044 7.51819 35.554V29.5455C7.51819 28.2898 6.50115 27.2727 5.24547 27.2727H2.97274C1.71706 27.2727 0.700012 28.2898 0.700012 29.5455V35.25C0.700012 47.983 9.78666 59.3338 22.2909 61.0582V65.9091H14.3364C13.0807 65.9091 12.0636 66.9261 12.0636 68.1818V70.4545C12.0636 71.7102 13.0807 72.7273 14.3364 72.7273H37.0636C38.3193 72.7273 39.3364 71.7102 39.3364 70.4545V68.1818C39.3364 66.9261 38.3193 65.9091 37.0636 65.9091H29.1091V61.1122C41.2838 59.4418 50.7 48.9915 50.7 36.3636V29.5455C50.7 28.2898 49.683 27.2727 48.4273 27.2727Z" fill="url(#paint0_linear_42_107)"/>
</g>
<defs>
<linearGradient id="paint0_linear_42_107" x1="0.700012" y1="0" x2="52.0058" y2="0.933148" gradientUnits="userSpaceOnUse">
<stop stop-color="#DA0006"/>
<stop offset="1" stop-color="#9E0004"/>
</linearGradient>
<clipPath id="clip0_42_107">
<rect width="50" height="72.7273" fill="white" transform="translate(0.700012)"/>
</clipPath>
</defs>
</svg>
