<svg width="52" height="53" viewBox="0 0 52 53" fill="none" xmlns="http://www.w3.org/2000/svg">
<g id="fluent:music-note-2-20-regular">
<g id="Group">
<path id="Vector" d="M38.2253 5.97042C38.6144 5.84895 39.0266 5.82067 39.4287 5.88787C39.8307 5.95507 40.2114 6.11587 40.5398 6.35729C40.8683 6.5987 41.1354 6.91397 41.3196 7.27764C41.5037 7.6413 41.5998 8.04318 41.6001 8.45082V35.2828C41.6001 36.7471 41.1057 38.1684 40.197 39.3166C39.2883 40.4648 38.0185 41.2725 36.5935 41.6089C35.1684 41.9454 33.6714 41.7907 32.3452 41.1702C31.019 40.5496 29.9411 39.4994 29.2863 38.1897C28.6314 36.88 28.438 35.3876 28.7373 33.9543C29.0365 32.521 29.811 31.2306 30.9352 30.2924C32.0594 29.3542 33.4674 28.8231 34.9312 28.785C36.3949 28.747 37.8287 29.2043 39.0001 30.0828V16.2508L20.8001 21.9396V40.4828C20.8001 41.9471 20.3057 43.3684 19.397 44.5166C18.4883 45.6648 17.2185 46.4725 15.7935 46.8089C14.3684 47.1454 12.8714 46.9907 11.5452 46.3702C10.219 45.7496 9.14111 44.6994 8.48628 43.3897C7.83145 42.08 7.638 40.5876 7.93727 39.1543C8.23655 37.721 9.01102 36.4306 10.1352 35.4924C11.2594 34.5542 12.6674 34.0231 14.1312 33.985C15.5949 33.947 17.0287 34.4043 18.2001 35.2828V14.1396C18.1998 13.5852 18.3768 13.0453 18.7051 12.5986C19.0335 12.1519 19.496 11.8218 20.0253 11.6566L38.2253 5.97042ZM20.8001 19.2148L39.0001 13.526V8.45082L20.8001 14.1396V19.2148ZM14.3001 36.5828C13.2657 36.5828 12.2737 36.9937 11.5423 37.7251C10.8109 38.4565 10.4001 39.4485 10.4001 40.4828C10.4001 41.5172 10.8109 42.5091 11.5423 43.2405C12.2737 43.9719 13.2657 44.3828 14.3001 44.3828C15.3344 44.3828 16.3264 43.9719 17.0578 43.2405C17.7892 42.5091 18.2001 41.5172 18.2001 40.4828C18.2001 39.4485 17.7892 38.4565 17.0578 37.7251C16.3264 36.9937 15.3344 36.5828 14.3001 36.5828ZM31.2001 35.2828C31.2001 36.3172 31.6109 37.3091 32.3423 38.0405C33.0737 38.7719 34.0657 39.1828 35.1001 39.1828C36.1344 39.1828 37.1264 38.7719 37.8578 38.0405C38.5892 37.3091 39.0001 36.3172 39.0001 35.2828C39.0001 34.2485 38.5892 33.2565 37.8578 32.5251C37.1264 31.7937 36.1344 31.3828 35.1001 31.3828C34.0657 31.3828 33.0737 31.7937 32.3423 32.5251C31.6109 33.2565 31.2001 34.2485 31.2001 35.2828Z" fill="#DA0006"/>
</g>
</g>
</svg>
