<svg width="75" height="74" viewBox="0 0 75 74" fill="none" xmlns="http://www.w3.org/2000/svg">
<g id="bi:file-earmark-music">
<g id="Group">
<path id="Vector" d="M50.975 30.7101C50.975 30.0071 50.8147 29.3133 50.5063 28.6815C50.1979 28.0497 49.7496 27.4965 49.1953 27.064C48.6411 26.6315 47.9956 26.3311 47.3078 26.1855C46.62 26.0399 45.9081 26.053 45.2261 26.2238L40.6011 27.3801C39.601 27.6306 38.7132 28.2082 38.0789 29.021C37.4445 29.8338 37.1 30.8353 37.1 31.8663V51.7816C35.6342 51.174 34.0617 50.8658 32.475 50.8751C30.1625 50.8751 27.9702 51.4948 26.2867 52.6187C24.6217 53.7287 23.225 55.5232 23.225 57.8126C23.225 60.102 24.6171 61.8965 26.2867 63.0065C27.9702 64.1303 30.1671 64.7501 32.475 64.7501C34.7875 64.7501 36.9797 64.1303 38.6632 63.0065C40.3282 61.8965 41.725 60.102 41.725 57.8126V41.1163L50.975 38.8038V30.7101Z" fill="url(#paint0_linear_42_113)"/>
<path id="Vector_2" d="M64.85 64.75V20.8125L44.0375 0H18.6C16.1467 0 13.7939 0.974551 12.0592 2.70926C10.3245 4.44397 9.34998 6.79675 9.34998 9.25V64.75C9.34998 67.2033 10.3245 69.556 12.0592 71.2907C13.7939 73.0254 16.1467 74 18.6 74H55.6C58.0532 74 60.406 73.0254 62.1407 71.2907C63.8754 69.556 64.85 67.2033 64.85 64.75ZM44.0375 13.875C44.0375 15.7149 44.7684 17.4795 46.0694 18.7806C47.3705 20.0816 49.135 20.8125 50.975 20.8125H60.225V64.75C60.225 65.9766 59.7377 67.153 58.8703 68.0204C58.003 68.8877 56.8266 69.375 55.6 69.375H18.6C17.3733 69.375 16.197 68.8877 15.3296 68.0204C14.4623 67.153 13.975 65.9766 13.975 64.75V9.25C13.975 8.02337 14.4623 6.84699 15.3296 5.97963C16.197 5.11228 17.3733 4.625 18.6 4.625H44.0375V13.875Z" fill="url(#paint1_linear_42_113)"/>
</g>
</g>
<defs>
<linearGradient id="paint0_linear_42_113" x1="23.225" y1="26.0852" x2="51.6988" y2="26.6258" gradientUnits="userSpaceOnUse">
<stop stop-color="#DA0006"/>
<stop offset="1" stop-color="#9E0004"/>
</linearGradient>
<linearGradient id="paint1_linear_42_113" x1="9.34998" y1="0" x2="66.2958" y2="1.12989" gradientUnits="userSpaceOnUse">
<stop stop-color="#DA0006"/>
<stop offset="1" stop-color="#9E0004"/>
</linearGradient>
</defs>
</svg>
