<svg width="52" height="53" viewBox="0 0 52 53" fill="none" xmlns="http://www.w3.org/2000/svg">
<g id="akar-icons:people-group">
<g id="Group">
<path id="Vector" d="M36.2245 42.9786L34.8378 31.8766C34.6413 30.3041 33.8771 28.8575 32.6888 27.809C31.5006 26.7604 29.9702 26.182 28.3855 26.1826H23.6101C22.0261 26.1831 20.4968 26.7619 19.3095 27.8104C18.1222 28.8589 17.3586 30.3048 17.1621 31.8766L15.7733 42.9786C15.6971 43.5886 15.7515 44.2077 15.9329 44.795C16.1144 45.3823 16.4187 45.9243 16.8257 46.385C17.2327 46.8456 17.733 47.2145 18.2934 47.4669C18.8539 47.7194 19.4616 47.8497 20.0763 47.8493H31.9236C32.5382 47.8494 33.1457 47.7189 33.7058 47.4663C34.266 47.2137 34.7661 46.8448 35.1728 46.3842C35.5796 45.9235 35.8837 45.3817 36.065 44.7945C36.2463 44.2074 36.3007 43.5884 36.2245 42.9786V42.9786Z" stroke="#DA0006" stroke-width="2" stroke-linecap="round" stroke-linejoin="round"/>
<path id="Vector_2" d="M26 17.5161C29.5899 17.5161 32.5 14.606 32.5 11.0161C32.5 7.42626 29.5899 4.51611 26 4.51611C22.4101 4.51611 19.5 7.42626 19.5 11.0161C19.5 14.606 22.4101 17.5161 26 17.5161Z" stroke="#DA0006" stroke-width="2"/>
<path id="Vector_3" d="M8.66658 24.0163C11.0598 24.0163 12.9999 22.0762 12.9999 19.6829C12.9999 17.2897 11.0598 15.3496 8.66658 15.3496C6.27335 15.3496 4.33325 17.2897 4.33325 19.6829C4.33325 22.0762 6.27335 24.0163 8.66658 24.0163Z" stroke="#DA0006" stroke-width="2"/>
<path id="Vector_4" d="M43.3333 24.0163C45.7266 24.0163 47.6667 22.0762 47.6667 19.6829C47.6667 17.2897 45.7266 15.3496 43.3333 15.3496C40.9401 15.3496 39 17.2897 39 19.6829C39 22.0762 40.9401 24.0163 43.3333 24.0163Z" stroke="#DA0006" stroke-width="2"/>
<path id="Vector_5" d="M8.66661 30.5161H8.00361C6.97783 30.516 5.98526 30.8798 5.20249 31.5427C4.41972 32.2057 3.89752 33.1248 3.72877 34.1366L3.00728 38.4699C2.90374 39.0908 2.93669 39.7267 3.10384 40.3336C3.27099 40.9404 3.56834 41.5035 3.97518 41.9838C4.38203 42.464 4.88862 42.8499 5.45971 43.1145C6.0308 43.3791 6.65269 43.5162 7.28211 43.5161H15.1666" stroke="#DA0006" stroke-width="2" stroke-linecap="round" stroke-linejoin="round"/>
<path id="Vector_6" d="M43.3333 30.5161H43.9963C45.022 30.516 46.0146 30.8798 46.7974 31.5427C47.5801 32.2057 48.1023 33.1248 48.2711 34.1366L48.9926 38.4699C49.0961 39.0908 49.0632 39.7267 48.896 40.3336C48.7289 40.9404 48.4315 41.5035 48.0247 41.9838C47.6178 42.464 47.1112 42.8499 46.5402 43.1145C45.9691 43.3791 45.3472 43.5162 44.7178 43.5161H36.8333" stroke="#DA0006" stroke-width="2" stroke-linecap="round" stroke-linejoin="round"/>
</g>
</g>
</svg>
