<svg width="38" height="38" viewBox="0 0 38 38" fill="none" xmlns="http://www.w3.org/2000/svg">
<g id="carbon:quotes">
<path id="Vector" d="M14.25 17.8125H7.25563C7.47632 16.3428 8.00112 14.9352 8.79651 13.6798C9.5919 12.4244 10.6404 11.3486 11.875 10.5212L14.0006 9.09625L12.6944 7.125L10.5687 8.55C8.77952 9.74234 7.31228 11.3579 6.29723 13.2534C5.28219 15.1488 4.75072 17.2655 4.75 19.4156V27.3125C4.75 27.9424 5.00022 28.5465 5.44562 28.9919C5.89102 29.4373 6.49511 29.6875 7.125 29.6875H14.25C14.8799 29.6875 15.484 29.4373 15.9294 28.9919C16.3748 28.5465 16.625 27.9424 16.625 27.3125V20.1875C16.625 19.5576 16.3748 18.9535 15.9294 18.5081C15.484 18.0627 14.8799 17.8125 14.25 17.8125Z" fill="url(#paint0_linear_115_472)"/>
<path id="Vector_2" d="M30.875 17.8125H23.8806C24.1013 16.3428 24.6261 14.9352 25.4215 13.6798C26.2169 12.4244 27.2654 11.3486 28.5 10.5212L30.6256 9.09625L29.3313 7.125L27.1937 8.55C25.4045 9.74234 23.9373 11.3579 22.9222 13.2534C21.9072 15.1488 21.3757 17.2655 21.375 19.4156V27.3125C21.375 27.9424 21.6252 28.5465 22.0706 28.9919C22.516 29.4373 23.1201 29.6875 23.75 29.6875H30.875C31.5049 29.6875 32.109 29.4373 32.5544 28.9919C32.9998 28.5465 33.25 27.9424 33.25 27.3125V20.1875C33.25 19.5576 32.9998 18.9535 32.5544 18.5081C32.109 18.0627 31.5049 17.8125 30.875 17.8125Z" fill="url(#paint1_linear_115_472)"/>
</g>
<defs>
<linearGradient id="paint0_linear_115_472" x1="4.75" y1="7.125" x2="16.9368" y2="7.29469" gradientUnits="userSpaceOnUse">
<stop stop-color="#DA0006"/>
<stop offset="1" stop-color="#9E0004"/>
</linearGradient>
<linearGradient id="paint1_linear_115_472" x1="21.375" y1="7.125" x2="33.5618" y2="7.29469" gradientUnits="userSpaceOnUse">
<stop stop-color="#DA0006"/>
<stop offset="1" stop-color="#9E0004"/>
</linearGradient>
</defs>
</svg>
