<svg width="52" height="53" viewBox="0 0 52 53" fill="none" xmlns="http://www.w3.org/2000/svg">
<g id="healthicons:happy-outline">
<g id="Group">
<path id="Vector" fill-rule="evenodd" clip-rule="evenodd" d="M26 43.516C35.5734 43.516 43.3333 35.756 43.3333 26.1826C43.3333 16.6092 35.5734 8.84928 26 8.84928C16.4266 8.84928 8.66667 16.6092 8.66667 26.1826C8.66667 35.756 16.4266 43.516 26 43.516ZM26 45.6826C36.7694 45.6826 45.5 36.952 45.5 26.1826C45.5 15.4132 36.7694 6.68262 26 6.68262C15.2306 6.68262 6.5 15.4132 6.5 26.1826C6.5 36.952 15.2306 45.6826 26 45.6826Z" fill="#DA0006"/>
<path id="Vector_2" fill-rule="evenodd" clip-rule="evenodd" d="M18.0862 30.5158C19.7708 34.6671 22.8746 37.0158 26 37.0158C29.1265 37.0158 32.2292 34.6671 33.9137 30.5158H18.0862ZM26 39.1825C21.6255 39.1825 17.8338 35.8805 15.9705 31.0575C15.9523 31.0109 15.9342 30.9644 15.9163 30.9177C15.4332 29.6275 16.4667 28.3491 17.8457 28.3491H34.1553C35.5344 28.3491 36.569 29.6275 36.0837 30.9177C36.0661 30.9644 36.0485 31.0109 36.0306 31.0575C34.1662 35.8805 30.3745 39.1825 26 39.1825Z" fill="#DA0006"/>
<path id="Vector_3" d="M23.0772 24.4949C23.218 24.107 23.1758 23.6336 23.0599 23.2024C22.9203 22.7059 22.6968 22.2369 22.399 21.8158C21.7696 20.9177 20.7264 20.0933 19.317 20.0326C17.8577 19.9719 16.7679 20.8982 16.0962 21.8808C15.7736 22.3537 15.5201 22.8703 15.3433 23.4148C15.1884 23.8979 15.106 24.3919 15.1602 24.7874C15.1727 24.8775 15.2076 24.9631 15.2619 25.0362C15.3161 25.1092 15.3879 25.1675 15.4706 25.2055C15.5533 25.2435 15.6443 25.26 15.735 25.2536C15.8258 25.2472 15.9135 25.218 15.99 25.1687C16.4234 24.8914 16.8773 24.5111 17.2976 24.1601C17.4883 23.9998 17.6735 23.8459 17.8447 23.7105C18.4535 23.2295 18.928 22.9554 19.3202 22.9359C19.694 22.9175 20.1251 23.1309 20.669 23.5383C20.864 23.6834 21.0525 23.8373 21.2475 23.9976L21.4587 24.1699C21.723 24.3833 22.0047 24.6021 22.2885 24.7733C22.357 24.8146 22.4338 24.8402 22.5133 24.8483C22.5928 24.8564 22.6732 24.8468 22.7486 24.8202C22.824 24.7936 22.8925 24.7506 22.9494 24.6944C23.0062 24.6381 23.0498 24.57 23.0772 24.4949Z" fill="#DA0006"/>
<path id="Vector_4" d="M28.8308 24.4949C28.6899 24.107 28.7333 23.6336 28.8492 23.2024C28.9705 22.7518 29.1948 22.2675 29.51 21.8158C30.1383 20.9177 31.1827 20.0933 32.5921 20.0326C34.0503 19.9719 35.1412 20.8982 35.8128 21.8808C36.153 22.3791 36.4065 22.9186 36.5657 23.4148C36.7196 23.8979 36.8019 24.3919 36.7478 24.7874C36.7352 24.8773 36.7003 24.9627 36.6461 25.0357C36.5919 25.1086 36.5202 25.1667 36.4377 25.2047C36.3551 25.2427 36.2644 25.2593 36.1737 25.253C36.0831 25.2467 35.9955 25.2177 35.919 25.1687C35.4857 24.8914 35.0307 24.5111 34.6114 24.1601C34.4197 23.9998 34.2355 23.8459 34.0643 23.7105C33.4544 23.2295 32.981 22.9554 32.5878 22.9359C32.214 22.9175 31.7828 23.1309 31.2401 23.5383C31.0451 23.6834 30.8566 23.8373 30.6616 23.9976L30.4493 24.1699C30.1849 24.3833 29.9043 24.6021 29.6205 24.7733C29.552 24.8148 29.4751 24.8406 29.3955 24.8488C29.3158 24.857 29.2353 24.8474 29.1598 24.8208C29.0843 24.7942 29.0156 24.7511 28.9587 24.6948C28.9018 24.6384 28.8581 24.5701 28.8308 24.4949Z" fill="#DA0006"/>
</g>
</g>
</svg>
