<svg width="69" height="69" viewBox="0 0 69 69" fill="none" xmlns="http://www.w3.org/2000/svg">
<g id="ant-design:sound-filled">
<path id="Vector" d="M60.1122 49.715L52.6799 45.4228C52.5578 45.3528 52.4231 45.3077 52.2835 45.2898C52.1439 45.2719 52.0022 45.2817 51.8664 45.3187C51.7306 45.3556 51.6035 45.4189 51.4922 45.505C51.3808 45.591 51.2876 45.6982 51.2177 45.8203L49.8768 48.145C49.5803 48.6571 49.7555 49.3175 50.2676 49.614L57.6999 53.9062C57.822 53.9762 57.9567 54.0213 58.0963 54.0392C58.2358 54.0571 58.3776 54.0473 58.5134 54.0103C58.6491 53.9734 58.7763 53.9101 58.8876 53.824C58.9989 53.738 59.0922 53.6308 59.1621 53.5087L60.503 51.184C60.7995 50.6719 60.6176 50.0115 60.1122 49.715ZM51.2109 23.1797C51.2808 23.3018 51.3741 23.409 51.4854 23.495C51.5967 23.5811 51.7239 23.6444 51.8597 23.6813C51.9955 23.7183 52.1372 23.7281 52.2768 23.7102C52.4163 23.6923 52.551 23.6472 52.6731 23.5772L60.1055 19.285C60.6176 18.9885 60.7928 18.3281 60.4963 17.816L59.1621 15.498C59.0922 15.3759 58.9989 15.2688 58.8876 15.1827C58.7763 15.0966 58.6491 15.0333 58.5134 14.9964C58.3776 14.9595 58.2358 14.9497 58.0963 14.9675C57.9567 14.9854 57.822 15.0306 57.6999 15.1005L50.2676 19.3928C50.0215 19.5362 49.8422 19.7713 49.769 20.0466C49.6957 20.3219 49.7345 20.6149 49.8768 20.8617L51.2109 23.1797ZM62.9355 32.0742H54.3105C53.7176 32.0742 53.2324 32.5594 53.2324 33.1523V35.8477C53.2324 36.4406 53.7176 36.9258 54.3105 36.9258H62.9355C63.5285 36.9258 64.0137 36.4406 64.0137 35.8477V33.1523C64.0137 32.5594 63.5285 32.0742 62.9355 32.0742ZM42.1749 7.74902C41.7773 7.74902 41.373 7.85684 41.0024 8.10615L17.1152 23.7188H6.06445C5.47148 23.7188 4.98633 24.2039 4.98633 24.7969V44.2031C4.98633 44.7961 5.47148 45.2812 6.06445 45.2812H17.1152L41.0024 60.8938C41.373 61.1364 41.7841 61.251 42.1749 61.251C43.3002 61.251 44.3379 60.3548 44.3379 59.088V9.91201C44.3379 8.64522 43.3002 7.74902 42.1749 7.74902Z" fill="url(#paint0_linear_42_105)"/>
</g>
<defs>
<linearGradient id="paint0_linear_42_105" x1="4.98633" y1="7.74902" x2="65.5237" y2="9.51595" gradientUnits="userSpaceOnUse">
<stop stop-color="#DA0006"/>
<stop offset="1" stop-color="#9E0004"/>
</linearGradient>
</defs>
</svg>
