<svg width="84" height="83" viewBox="0 0 84 83" fill="none" xmlns="http://www.w3.org/2000/svg">
<g id="ant-design:star-filled">
<path id="Vector" d="M74.4058 28.6205L53.826 25.6296L44.6263 6.97871C44.375 6.46806 43.9616 6.05467 43.451 5.8034C42.1703 5.17117 40.6141 5.69803 39.9738 6.97871L30.774 25.6296L10.1942 28.6205C9.62687 28.7016 9.10812 28.9691 8.71095 29.3743C8.23079 29.8679 7.96621 30.5318 7.97533 31.2203C7.98444 31.9088 8.26652 32.5655 8.75958 33.0462L23.6493 47.5632L20.1316 68.0621C20.0491 68.539 20.1018 69.0294 20.2839 69.4778C20.4659 69.9262 20.77 70.3146 21.1615 70.599C21.5531 70.8833 22.0165 71.0523 22.4992 71.0867C22.9819 71.1212 23.4646 71.0196 23.8925 70.7937L42.3 61.1157L60.7076 70.7937C61.2101 71.0612 61.7937 71.1503 62.353 71.0531C63.7633 70.8099 64.7117 69.4725 64.4685 68.0621L60.9507 47.5632L75.8405 33.0462C76.2457 32.649 76.5132 32.1302 76.5943 31.5628C76.8131 30.1444 75.8243 28.8313 74.4058 28.6205Z" fill="url(#paint0_linear_42_117)"/>
</g>
<defs>
<linearGradient id="paint0_linear_42_117" x1="7.9751" y1="5.53589" x2="78.3867" y2="7.4865" gradientUnits="userSpaceOnUse">
<stop stop-color="#DA0006"/>
<stop offset="1" stop-color="#9E0004"/>
</linearGradient>
</defs>
</svg>
